# xmcd
#
# Track frame offsets: 
#        150
#        14163
#        24653
#        37173
#        49511
#        61799
#        73081
#        84403
#        97336
#        110454
#        121945
#        135460
#        145917
#        159452
#        172560
#        185212
#        197432
#        209879
#        222391
#        236212
#        249873
#        263675
#        277204
#
# Disc length: 3852 seconds
#
# Revision: 0
# Processed by: cddbd v1.5.2PL0 Copyright (c) Steve Scherf et al.
# Submitted via: ExactAudioCopy v0.95b2
#
DISCID=5d0f0a17
DTITLE=Slim Whitman - Rose Marie
DYEAR=1949
DGENRE=Country
TTITLE0=Indian love call
TTITLE1=Rose Marie
TTITLE2=Secret love
TTITLE3=North wind
TTITLE4=My Heart is broken in three
TTITLE5=Singing hills
TTITLE6=Cattle call
TTITLE7=China doll
TTITLE8=Birmingham jail
TTITLE9=When I grow too old to dream
TTITLE10=Danny boy (Londonderry Air)
TTITLE11=Beautifil dreamer
TTITLE12=Roll on silvery moon
TTITLE13=Why
TTITLE14=By the waters of Minnetonka
TTITLE15=I'll never pass this way again
TTITLE16=Wabash waltz
TTITLE17=Restless heart
TTITLE18=In a hundred years or more
TTITLE19=Haunted hungry heart
TTITLE20=Please paint a rose on the garden wall
TTITLE21=All that I'm asking is sympathy
TTITLE22=There's a rainbow in every teardrop
EXTD=
EXTT0=
EXTT1=
EXTT2=
EXTT3=
EXTT4=
EXTT5=
EXTT6=
EXTT7=
EXTT8=
EXTT9=
EXTT10=
EXTT11=
EXTT12=
EXTT13=
EXTT14=
EXTT15=
EXTT16=
EXTT17=
EXTT18=
EXTT19=
EXTT20=
EXTT21=
EXTT22=
PLAYORDER=
